<svg width="60" height="2861" viewBox="0 0 60 2861" fill="none" xmlns="http://www.w3.org/2000/svg">
<rect x="0.189941" width="32" height="1" fill="white" fill-opacity="0.1"/>
<rect x="0.189941" y="13" width="32" height="1" fill="white" fill-opacity="0.1"/>
<rect x="0.189941" y="26" width="32" height="1" fill="white" fill-opacity="0.1"/>
<rect x="0.189941" y="39" width="32" height="1" fill="white" fill-opacity="0.1"/>
<rect x="0.189941" y="52" width="32" height="1" fill="white" fill-opacity="0.1"/>
<rect x="0.189941" y="65" width="32" height="1" fill="white" fill-opacity="0.1"/>
<rect x="0.189941" y="78" width="32" height="1" fill="white" fill-opacity="0.1"/>
<rect x="0.189941" y="91" width="32" height="1" fill="white" fill-opacity="0.1"/>
<rect x="0.189941" y="104" width="32" height="1" fill="white" fill-opacity="0.1"/>
<rect x="0.189941" y="117" width="32" height="1" fill="white" fill-opacity="0.1"/>
<rect x="0.189941" y="130" width="32" height="1" fill="white" fill-opacity="0.1"/>
<rect x="0.189941" y="143" width="32" height="1" fill="white" fill-opacity="0.1"/>
<rect x="0.189941" y="156" width="32" height="1" fill="white" fill-opacity="0.1"/>
<rect x="0.189941" y="169" width="32" height="1" fill="white" fill-opacity="0.1"/>
<rect x="0.189941" y="182" width="32" height="1" fill="white" fill-opacity="0.1"/>
<rect x="0.189941" y="195" width="32" height="1" fill="white" fill-opacity="0.1"/>
<rect x="0.189941" y="208" width="32" height="1" fill="white" fill-opacity="0.1"/>
<rect x="0.189941" y="221" width="32" height="1" fill="white" fill-opacity="0.1"/>
<rect x="0.189941" y="234" width="32" height="1" fill="white" fill-opacity="0.1"/>
<rect x="0.189941" y="247" width="32" height="1" fill="white" fill-opacity="0.1"/>
<rect x="0.189941" y="260" width="32" height="1" fill="white" fill-opacity="0.1"/>
<rect x="0.189941" y="273" width="32" height="1" fill="white" fill-opacity="0.1"/>
<rect x="0.189941" y="286" width="32" height="1" fill="white" fill-opacity="0.1"/>
<rect x="0.189941" y="299" width="32" height="1" fill="white" fill-opacity="0.1"/>
<rect x="0.189941" y="312" width="32" height="1" fill="white" fill-opacity="0.1"/>
<rect x="0.189941" y="325" width="32" height="1" fill="white" fill-opacity="0.1"/>
<rect x="0.189941" y="338" width="32" height="1" fill="white" fill-opacity="0.1"/>
<rect x="0.189941" y="351" width="32" height="1" fill="white" fill-opacity="0.1"/>
<rect x="0.189941" y="364" width="32" height="1" fill="white" fill-opacity="0.1"/>
<rect x="0.189941" y="377" width="32" height="1" fill="white" fill-opacity="0.1"/>
<rect x="0.189941" y="390" width="32" height="1" fill="white" fill-opacity="0.1"/>
<rect x="0.189941" y="403" width="32" height="1" fill="white" fill-opacity="0.1"/>
<rect x="0.189941" y="416" width="32" height="1" fill="white" fill-opacity="0.1"/>
<rect x="0.189941" y="429" width="32" height="1" fill="white" fill-opacity="0.1"/>
<rect x="0.189941" y="442" width="32" height="1" fill="white" fill-opacity="0.1"/>
<rect x="0.189941" y="455" width="32" height="1" fill="white" fill-opacity="0.1"/>
<rect x="0.189941" y="468" width="32" height="1" fill="white" fill-opacity="0.1"/>
<rect x="0.189941" y="481" width="32" height="1" fill="white" fill-opacity="0.1"/>
<rect x="0.189941" y="494" width="32" height="1" fill="white" fill-opacity="0.1"/>
<rect x="0.189941" y="507" width="32" height="1" fill="white" fill-opacity="0.1"/>
<rect x="0.189941" y="520" width="32" height="1" fill="white" fill-opacity="0.1"/>
<rect x="0.189941" y="533" width="32" height="1" fill="white" fill-opacity="0.1"/>
<rect x="0.189941" y="546" width="32" height="1" fill="white" fill-opacity="0.1"/>
<rect x="0.189941" y="559" width="32" height="1" fill="white" fill-opacity="0.1"/>
<rect x="0.189941" y="572" width="32" height="1" fill="white" fill-opacity="0.1"/>
<rect x="0.189941" y="585" width="32" height="1" fill="white" fill-opacity="0.1"/>
<rect x="0.189941" y="598" width="32" height="1" fill="white" fill-opacity="0.1"/>
<rect x="0.189941" y="611" width="32" height="1" fill="white" fill-opacity="0.1"/>
<rect x="0.189941" y="624" width="32" height="1" fill="white" fill-opacity="0.1"/>
<rect x="0.189941" y="637" width="32" height="1" fill="white" fill-opacity="0.1"/>
<rect x="0.189941" y="650" width="32" height="1" fill="white" fill-opacity="0.1"/>
<rect x="0.189941" y="663" width="32" height="1" fill="white" fill-opacity="0.1"/>
<rect x="0.189941" y="676" width="32" height="1" fill="white" fill-opacity="0.1"/>
<rect x="0.189941" y="689" width="32" height="1" fill="white" fill-opacity="0.1"/>
<rect x="0.189941" y="702" width="32" height="1" fill="white" fill-opacity="0.1"/>
<rect x="0.189941" y="715" width="32" height="1" fill="white" fill-opacity="0.1"/>
<rect x="0.189941" y="728" width="32" height="1" fill="white" fill-opacity="0.1"/>
<rect x="0.189941" y="741" width="32" height="1" fill="white" fill-opacity="0.1"/>
<rect x="0.189941" y="754" width="32" height="1" fill="white" fill-opacity="0.1"/>
<rect x="0.189941" y="767" width="32" height="1" fill="white" fill-opacity="0.1"/>
<rect y="779.56" width="36" height="1" fill="#3D2B29"/>
<rect y="792.56" width="40" height="1" fill="#5C2F29"/>
<rect y="805.56" width="45" height="1" fill="#9A382A"/>
<rect y="818.56" width="60" height="1" fill="#9A382A"/>
<rect y="831.56" width="45" height="1" fill="#9A382A"/>
<rect y="844.56" width="40" height="1" fill="#5C2F29"/>
<rect y="857.56" width="36" height="1" fill="#3D2B29"/>
<rect x="0.189941" y="871" width="32" height="1" fill="white" fill-opacity="0.1"/>
<rect x="0.189941" y="884" width="32" height="1" fill="white" fill-opacity="0.1"/>
<rect x="0.189941" y="897" width="32" height="1" fill="white" fill-opacity="0.1"/>
<rect x="0.189941" y="910" width="32" height="1" fill="white" fill-opacity="0.1"/>
<rect x="0.189941" y="923" width="32" height="1" fill="white" fill-opacity="0.1"/>
<rect x="0.189941" y="936" width="32" height="1" fill="white" fill-opacity="0.1"/>
<rect x="0.189941" y="949" width="32" height="1" fill="white" fill-opacity="0.1"/>
<rect x="0.189941" y="962" width="32" height="1" fill="white" fill-opacity="0.1"/>
<rect x="0.189941" y="975" width="32" height="1" fill="white" fill-opacity="0.1"/>
<rect x="0.189941" y="988" width="32" height="1" fill="white" fill-opacity="0.1"/>
<rect x="0.189941" y="1001" width="32" height="1" fill="white" fill-opacity="0.1"/>
<rect x="0.189941" y="1014" width="32" height="1" fill="white" fill-opacity="0.1"/>
<rect x="0.189941" y="1027" width="32" height="1" fill="white" fill-opacity="0.1"/>
<rect x="0.189941" y="1040" width="32" height="1" fill="white" fill-opacity="0.1"/>
<rect x="0.189941" y="1053" width="32" height="1" fill="white" fill-opacity="0.1"/>
<rect x="0.189941" y="1066" width="32" height="1" fill="white" fill-opacity="0.1"/>
<rect x="0.189941" y="1079" width="32" height="1" fill="white" fill-opacity="0.1"/>
<rect x="0.189941" y="1092" width="32" height="1" fill="white" fill-opacity="0.1"/>
<rect x="0.189941" y="1105" width="32" height="1" fill="white" fill-opacity="0.1"/>
<rect x="0.189941" y="1118" width="32" height="1" fill="white" fill-opacity="0.1"/>
<rect x="0.189941" y="1131" width="32" height="1" fill="white" fill-opacity="0.1"/>
<rect x="0.189941" y="1144" width="32" height="1" fill="white" fill-opacity="0.1"/>
<rect x="0.189941" y="1157" width="32" height="1" fill="white" fill-opacity="0.1"/>
<rect x="0.189941" y="1170" width="32" height="1" fill="white" fill-opacity="0.1"/>
<rect x="0.189941" y="1183" width="32" height="1" fill="white" fill-opacity="0.1"/>
<rect x="0.189941" y="1196" width="32" height="1" fill="white" fill-opacity="0.1"/>
<rect x="0.189941" y="1209" width="32" height="1" fill="white" fill-opacity="0.1"/>
<rect x="0.189941" y="1222" width="32" height="1" fill="white" fill-opacity="0.1"/>
<rect x="0.189941" y="1235" width="32" height="1" fill="white" fill-opacity="0.1"/>
<rect x="0.189941" y="1248" width="32" height="1" fill="white" fill-opacity="0.1"/>
<rect x="0.189941" y="1261" width="32" height="1" fill="white" fill-opacity="0.1"/>
<rect x="0.189941" y="1274" width="32" height="1" fill="white" fill-opacity="0.1"/>
<rect x="0.189941" y="1287" width="32" height="1" fill="white" fill-opacity="0.1"/>
<rect x="0.189941" y="1300" width="32" height="1" fill="white" fill-opacity="0.1"/>
<rect x="0.189941" y="1313" width="32" height="1" fill="white" fill-opacity="0.1"/>
<rect x="0.189941" y="1326" width="32" height="1" fill="white" fill-opacity="0.1"/>
<rect x="0.189941" y="1339" width="32" height="1" fill="white" fill-opacity="0.1"/>
<rect x="0.189941" y="1352" width="32" height="1" fill="white" fill-opacity="0.1"/>
<rect x="0.189941" y="1365" width="32" height="1" fill="white" fill-opacity="0.1"/>
<rect x="0.189941" y="1378" width="32" height="1" fill="white" fill-opacity="0.1"/>
<rect x="0.189941" y="1391" width="32" height="1" fill="white" fill-opacity="0.1"/>
<rect x="0.189941" y="1404" width="32" height="1" fill="white" fill-opacity="0.1"/>
<rect x="0.189941" y="1417" width="32" height="1" fill="white" fill-opacity="0.1"/>
<rect x="0.189941" y="1430" width="32" height="1" fill="white" fill-opacity="0.1"/>
<rect x="0.189941" y="1443" width="32" height="1" fill="white" fill-opacity="0.1"/>
<rect x="0.189941" y="1456" width="32" height="1" fill="white" fill-opacity="0.1"/>
<rect x="0.189941" y="1469" width="32" height="1" fill="white" fill-opacity="0.1"/>
<rect x="0.189941" y="1482" width="32" height="1" fill="white" fill-opacity="0.1"/>
<rect x="0.189941" y="1495" width="32" height="1" fill="white" fill-opacity="0.1"/>
<rect x="0.189941" y="1508" width="32" height="1" fill="white" fill-opacity="0.1"/>
<rect x="0.189941" y="1521" width="32" height="1" fill="white" fill-opacity="0.1"/>
<rect x="0.189941" y="1534" width="32" height="1" fill="white" fill-opacity="0.1"/>
<rect x="0.189941" y="1547" width="32" height="1" fill="white" fill-opacity="0.1"/>
<rect x="0.189941" y="1560" width="32" height="1" fill="white" fill-opacity="0.1"/>
<rect x="0.189941" y="1573" width="32" height="1" fill="white" fill-opacity="0.1"/>
<rect x="0.189941" y="1586" width="32" height="1" fill="white" fill-opacity="0.1"/>
<rect x="0.189941" y="1599" width="32" height="1" fill="white" fill-opacity="0.1"/>
<rect x="0.189941" y="1612" width="32" height="1" fill="white" fill-opacity="0.1"/>
<rect x="0.189941" y="1625" width="32" height="1" fill="white" fill-opacity="0.1"/>
<rect x="0.189941" y="1638" width="32" height="1" fill="white" fill-opacity="0.1"/>
<rect x="0.189941" y="1651" width="32" height="1" fill="white" fill-opacity="0.1"/>
<rect x="0.189941" y="1664" width="32" height="1" fill="white" fill-opacity="0.1"/>
<rect x="0.189941" y="1677" width="32" height="1" fill="white" fill-opacity="0.1"/>
<rect x="0.189941" y="1690" width="32" height="1" fill="white" fill-opacity="0.1"/>
<rect x="0.189941" y="1703" width="32" height="1" fill="white" fill-opacity="0.1"/>
<rect x="0.189941" y="1716" width="32" height="1" fill="white" fill-opacity="0.1"/>
<rect x="0.189941" y="1729" width="32" height="1" fill="white" fill-opacity="0.1"/>
<rect x="0.189941" y="1742" width="32" height="1" fill="white" fill-opacity="0.1"/>
<rect x="0.189941" y="1755" width="32" height="1" fill="white" fill-opacity="0.1"/>
<rect x="0.189941" y="1768" width="32" height="1" fill="white" fill-opacity="0.1"/>
<rect x="0.189941" y="1781" width="32" height="1" fill="white" fill-opacity="0.1"/>
<rect x="0.189941" y="1794" width="32" height="1" fill="white" fill-opacity="0.1"/>
<rect x="0.189941" y="1807" width="32" height="1" fill="white" fill-opacity="0.1"/>
<rect x="0.189941" y="1820" width="32" height="1" fill="white" fill-opacity="0.1"/>
<rect x="0.189941" y="1833" width="32" height="1" fill="white" fill-opacity="0.1"/>
<rect x="0.189941" y="1846" width="32" height="1" fill="white" fill-opacity="0.1"/>
<rect x="0.189941" y="1859" width="32" height="1" fill="white" fill-opacity="0.1"/>
<rect x="0.189941" y="1872" width="32" height="1" fill="white" fill-opacity="0.1"/>
<rect x="0.189941" y="1885" width="32" height="1" fill="white" fill-opacity="0.1"/>
<rect x="0.189941" y="1898" width="32" height="1" fill="white" fill-opacity="0.1"/>
<rect x="0.189941" y="1911" width="32" height="1" fill="white" fill-opacity="0.1"/>
<rect x="0.189941" y="1924" width="32" height="1" fill="white" fill-opacity="0.1"/>
<rect x="0.189941" y="1937" width="32" height="1" fill="white" fill-opacity="0.1"/>
<rect x="0.189941" y="1950" width="32" height="1" fill="white" fill-opacity="0.1"/>
<rect x="0.189941" y="1963" width="32" height="1" fill="white" fill-opacity="0.1"/>
<rect x="0.189941" y="1976" width="32" height="1" fill="white" fill-opacity="0.1"/>
<rect x="0.189941" y="1989" width="32" height="1" fill="white" fill-opacity="0.1"/>
<rect x="0.189941" y="2002" width="32" height="1" fill="white" fill-opacity="0.1"/>
<rect x="0.189941" y="2015" width="32" height="1" fill="white" fill-opacity="0.1"/>
<rect x="0.189941" y="2028" width="32" height="1" fill="white" fill-opacity="0.1"/>
<rect x="0.189941" y="2041" width="32" height="1" fill="white" fill-opacity="0.1"/>
<rect x="0.189941" y="2054" width="32" height="1" fill="white" fill-opacity="0.1"/>
<rect x="0.189941" y="2067" width="32" height="1" fill="white" fill-opacity="0.1"/>
<rect x="0.189941" y="2080" width="32" height="1" fill="white" fill-opacity="0.1"/>
<rect x="0.189941" y="2093" width="32" height="1" fill="white" fill-opacity="0.1"/>
<rect x="0.189941" y="2106" width="32" height="1" fill="white" fill-opacity="0.1"/>
<rect x="0.189941" y="2119" width="32" height="1" fill="white" fill-opacity="0.1"/>
<rect x="0.189941" y="2132" width="32" height="1" fill="white" fill-opacity="0.1"/>
<rect x="0.189941" y="2145" width="32" height="1" fill="white" fill-opacity="0.1"/>
<rect x="0.189941" y="2158" width="32" height="1" fill="white" fill-opacity="0.1"/>
<rect x="0.189941" y="2171" width="32" height="1" fill="white" fill-opacity="0.1"/>
<rect x="0.189941" y="2184" width="32" height="1" fill="white" fill-opacity="0.1"/>
<rect x="0.189941" y="2197" width="32" height="1" fill="white" fill-opacity="0.1"/>
<rect x="0.189941" y="2210" width="32" height="1" fill="white" fill-opacity="0.1"/>
<rect x="0.189941" y="2223" width="32" height="1" fill="white" fill-opacity="0.1"/>
<rect x="0.189941" y="2236" width="32" height="1" fill="white" fill-opacity="0.1"/>
<rect x="0.189941" y="2249" width="32" height="1" fill="white" fill-opacity="0.1"/>
<rect x="0.189941" y="2262" width="32" height="1" fill="white" fill-opacity="0.1"/>
<rect x="0.189941" y="2275" width="32" height="1" fill="white" fill-opacity="0.1"/>
<rect x="0.189941" y="2288" width="32" height="1" fill="white" fill-opacity="0.1"/>
<rect x="0.189941" y="2301" width="32" height="1" fill="white" fill-opacity="0.1"/>
<rect x="0.189941" y="2314" width="32" height="1" fill="white" fill-opacity="0.1"/>
<rect x="0.189941" y="2327" width="32" height="1" fill="white" fill-opacity="0.1"/>
<rect x="0.189941" y="2340" width="32" height="1" fill="white" fill-opacity="0.1"/>
<rect x="0.189941" y="2353" width="32" height="1" fill="white" fill-opacity="0.1"/>
<rect x="0.189941" y="2366" width="32" height="1" fill="white" fill-opacity="0.1"/>
<rect x="0.189941" y="2379" width="32" height="1" fill="white" fill-opacity="0.1"/>
<rect x="0.189941" y="2392" width="32" height="1" fill="white" fill-opacity="0.1"/>
<rect x="0.189941" y="2405" width="32" height="1" fill="white" fill-opacity="0.1"/>
<rect x="0.189941" y="2418" width="32" height="1" fill="white" fill-opacity="0.1"/>
<rect x="0.189941" y="2431" width="32" height="1" fill="white" fill-opacity="0.1"/>
<rect x="0.189941" y="2444" width="32" height="1" fill="white" fill-opacity="0.1"/>
<rect x="0.189941" y="2457" width="32" height="1" fill="white" fill-opacity="0.1"/>
<rect x="0.189941" y="2470" width="32" height="1" fill="white" fill-opacity="0.1"/>
<rect x="0.189941" y="2483" width="32" height="1" fill="white" fill-opacity="0.1"/>
<rect x="0.189941" y="2496" width="32" height="1" fill="white" fill-opacity="0.1"/>
<rect x="0.189941" y="2509" width="32" height="1" fill="white" fill-opacity="0.1"/>
<rect x="0.189941" y="2522" width="32" height="1" fill="white" fill-opacity="0.1"/>
<rect x="0.189941" y="2535" width="32" height="1" fill="white" fill-opacity="0.1"/>
<rect x="0.189941" y="2548" width="32" height="1" fill="white" fill-opacity="0.1"/>
<rect x="0.189941" y="2561" width="32" height="1" fill="white" fill-opacity="0.1"/>
<rect x="0.189941" y="2574" width="32" height="1" fill="white" fill-opacity="0.1"/>
<rect x="0.189941" y="2587" width="32" height="1" fill="white" fill-opacity="0.1"/>
<rect x="0.189941" y="2600" width="32" height="1" fill="white" fill-opacity="0.1"/>
<rect x="0.189941" y="2613" width="32" height="1" fill="white" fill-opacity="0.1"/>
<rect x="0.189941" y="2626" width="32" height="1" fill="white" fill-opacity="0.1"/>
<rect x="0.189941" y="2639" width="32" height="1" fill="white" fill-opacity="0.1"/>
<rect x="0.189941" y="2652" width="32" height="1" fill="white" fill-opacity="0.1"/>
<rect x="0.189941" y="2665" width="32" height="1" fill="white" fill-opacity="0.1"/>
<rect x="0.189941" y="2678" width="32" height="1" fill="white" fill-opacity="0.1"/>
<rect x="0.189941" y="2691" width="32" height="1" fill="white" fill-opacity="0.1"/>
<rect x="0.189941" y="2704" width="32" height="1" fill="white" fill-opacity="0.1"/>
<rect x="0.189941" y="2717" width="32" height="1" fill="white" fill-opacity="0.1"/>
<rect x="0.189941" y="2730" width="32" height="1" fill="white" fill-opacity="0.1"/>
<rect x="0.189941" y="2743" width="32" height="1" fill="white" fill-opacity="0.1"/>
<rect x="0.189941" y="2756" width="32" height="1" fill="white" fill-opacity="0.1"/>
<rect x="0.189941" y="2769" width="32" height="1" fill="white" fill-opacity="0.1"/>
<rect x="0.189941" y="2782" width="32" height="1" fill="white" fill-opacity="0.1"/>
<rect x="0.189941" y="2795" width="32" height="1" fill="white" fill-opacity="0.1"/>
<rect x="0.189941" y="2808" width="32" height="1" fill="white" fill-opacity="0.1"/>
<rect x="0.189941" y="2821" width="32" height="1" fill="white" fill-opacity="0.1"/>
<rect x="0.189941" y="2834" width="32" height="1" fill="white" fill-opacity="0.1"/>
<rect x="0.189941" y="2847" width="32" height="1" fill="white" fill-opacity="0.1"/>
<rect x="0.189941" y="2860" width="32" height="1" fill="white" fill-opacity="0.1"/>
</svg>
